M48
; DRILL file {KiCad 8.0.5} date 2024-11-19T21:37:09+0800
; FORMAT={-:-/ absolute / inch / decimal}
; #@! TF.CreationDate,2024-11-19T21:37:09+08:00
; #@! TF.GenerationSoftware,Kicad,Pcbnew,8.0.5
; #@! TF.FileFunction,NonPlated,1,2,NPTH
FMAT,2
INCH
; #@! TA.AperFunction,NonPlated,NPTH,ComponentDrill
T1C0.0472
; #@! TA.AperFunction,NonPlated,NPTH,ComponentDrill
T2C0.0669
; #@! TA.AperFunction,NonPlated,NPTH,ComponentDrill
T3C0.0748
; #@! TA.AperFunction,NonPlated,NPTH,ComponentDrill
T4C0.1181
; #@! TA.AperFunction,NonPlated,NPTH,ComponentDrill
T5C0.1614
; #@! TA.AperFunction,NonPlated,NPTH,ComponentDrill
T6C0.1693
; #@! TA.AperFunction,NonPlated,NPTH,ComponentDrill
T7C0.1969
%
G90
G05
T1
X3.6222Y-3.6268
X3.6222Y-3.6957
X3.8978Y-3.6268
X3.8978Y-3.6957
T2
X3.3978Y-5.5541
X3.7169Y-4.4083
X3.7308Y-5.4329
X4.0713Y-4.4083
X4.2134Y-5.307
X4.4669Y-2.0205
X4.4669Y-2.7705
X4.4669Y-3.5205
X4.4669Y-4.2705
X4.5623Y-5.2455
X4.8213Y-2.0205
X4.8213Y-2.7705
X4.8213Y-3.5205
X4.8213Y-4.2705
X5.2169Y-1.922
X5.2169Y-2.672
X5.2169Y-3.422
X5.2169Y-4.172
X5.5713Y-1.922
X5.5713Y-2.672
X5.5713Y-3.422
X5.5713Y-4.172
X5.9669Y-1.8236
X5.9669Y-2.5736
X5.9669Y-3.3236
X5.9669Y-4.0736
X6.3213Y-1.8236
X6.3213Y-2.5736
X6.3213Y-3.3236
X6.3213Y-4.0736
X6.7169Y-2.0086
X6.7169Y-2.7586
X6.7169Y-3.5086
X6.7169Y-4.2587
X7.0713Y-2.0086
X7.0713Y-2.7586
X7.0713Y-3.5086
X7.0713Y-4.2587
X7.4669Y-2.2842
X7.4669Y-3.0342
X7.4669Y-3.7842
X7.4669Y-4.5343
X7.4669Y-5.2843
X7.8213Y-2.2842
X7.8213Y-3.0342
X7.8213Y-3.7842
X7.8213Y-4.5343
X7.8213Y-5.2843
X8.2169Y-2.2842
X8.2169Y-3.0342
X8.2169Y-3.7842
X8.2169Y-4.5343
X8.2169Y-5.2843
X8.5713Y-2.2842
X8.5713Y-3.0342
X8.5713Y-3.7842
X8.5713Y-4.5343
X8.5713Y-5.2843
T3
X3.3608Y-5.5675
X3.3763Y-5.5619
X3.6941Y-4.4083
X3.7522Y-5.4251
X3.7677Y-5.4194
X4.0941Y-4.4083
X4.1746Y-5.3139
X4.1909Y-5.311
X4.4441Y-2.0205
X4.4441Y-2.7705
X4.4441Y-3.5205
X4.4441Y-4.2705
X4.5848Y-5.2415
X4.6011Y-5.2387
X4.8441Y-2.0205
X4.8441Y-2.7705
X4.8441Y-3.5205
X4.8441Y-4.2705
X5.1941Y-1.922
X5.1941Y-2.672
X5.1941Y-3.422
X5.1941Y-4.172
X5.5941Y-1.922
X5.5941Y-2.672
X5.5941Y-3.422
X5.5941Y-4.172
X5.9441Y-1.8236
X5.9441Y-2.5736
X5.9441Y-3.3236
X5.9441Y-4.0736
X6.3441Y-1.8236
X6.3441Y-2.5736
X6.3441Y-3.3236
X6.3441Y-4.0736
X6.6941Y-2.0086
X6.6941Y-2.7586
X6.6941Y-3.5086
X6.6941Y-4.2587
X7.0941Y-2.0086
X7.0941Y-2.7586
X7.0941Y-3.5086
X7.0941Y-4.2587
X7.4441Y-2.2842
X7.4441Y-3.0342
X7.4441Y-3.7842
X7.4441Y-4.5343
X7.4441Y-5.2843
X7.8441Y-2.2842
X7.8441Y-3.0342
X7.8441Y-3.7842
X7.8441Y-4.5343
X7.8441Y-5.2843
X8.1941Y-2.2842
X8.1941Y-3.0342
X8.1941Y-3.7842
X8.1941Y-4.5343
X8.1941Y-5.2843
X8.5941Y-2.2842
X8.5941Y-3.0342
X8.5941Y-3.7842
X8.5941Y-4.5343
X8.5941Y-5.2843
T4
X3.3295Y-5.4239
X3.4575Y-5.6387
X3.4848Y-5.2752
X3.4848Y-5.2752
X3.5387Y-5.7156
X3.6994Y-5.2893
X3.7266Y-5.6472
X3.7394Y-5.5361
X3.7441Y-4.3083
X3.7941Y-4.2083
X3.9941Y-4.2083
X4.0441Y-4.3083
X4.1687Y-5.167
X4.2575Y-5.4008
X4.3241Y-5.4906
X4.3475Y-5.0475
X4.3475Y-5.0475
X4.4941Y-1.9205
X4.4941Y-2.6705
X4.4941Y-3.4205
X4.4941Y-4.1705
X4.5211Y-5.4559
X4.5441Y-1.8205
X4.5441Y-2.5705
X4.5441Y-3.3205
X4.5441Y-4.0705
X4.553Y-5.3487
X4.5564Y-5.0986
X4.7441Y-1.8205
X4.7441Y-2.5705
X4.7441Y-3.3205
X4.7441Y-4.0705
X4.7941Y-1.9205
X4.7941Y-2.6705
X4.7941Y-3.4205
X4.7941Y-4.1705
X5.2441Y-1.822
X5.2441Y-2.572
X5.2441Y-3.322
X5.2441Y-4.072
X5.2941Y-1.722
X5.2941Y-2.472
X5.2941Y-3.222
X5.2941Y-3.972
X5.4941Y-1.722
X5.4941Y-2.472
X5.4941Y-3.222
X5.4941Y-3.972
X5.5441Y-1.822
X5.5441Y-2.572
X5.5441Y-3.322
X5.5441Y-4.072
X5.9941Y-1.7236
X5.9941Y-2.4736
X5.9941Y-3.2236
X5.9941Y-3.9736
X6.0441Y-1.6236
X6.0441Y-2.3736
X6.0441Y-3.1236
X6.0441Y-3.8736
X6.2441Y-1.6236
X6.2441Y-2.3736
X6.2441Y-3.1236
X6.2441Y-3.8736
X6.2941Y-1.7236
X6.2941Y-2.4736
X6.2941Y-3.2236
X6.2941Y-3.9736
X6.7441Y-1.9086
X6.7441Y-2.6586
X6.7441Y-3.4086
X6.7441Y-4.1587
X6.7941Y-1.8086
X6.7941Y-2.5586
X6.7941Y-3.3086
X6.7941Y-4.0587
X6.9941Y-1.8086
X6.9941Y-2.5586
X6.9941Y-3.3086
X6.9941Y-4.0587
X7.0441Y-1.9086
X7.0441Y-2.6586
X7.0441Y-3.4086
X7.0441Y-4.1587
X7.4941Y-2.1842
X7.4941Y-2.9342
X7.4941Y-3.6842
X7.4941Y-4.4343
X7.4941Y-5.1843
X7.5441Y-2.0842
X7.5441Y-2.8342
X7.5441Y-3.5842
X7.5441Y-4.3343
X7.5441Y-5.0843
X7.7441Y-2.0842
X7.7441Y-2.8342
X7.7441Y-3.5842
X7.7441Y-4.3343
X7.7441Y-5.0843
X7.7941Y-2.1842
X7.7941Y-2.9342
X7.7941Y-3.6842
X7.7941Y-4.4343
X7.7941Y-5.1843
X8.2441Y-2.1842
X8.2441Y-2.9342
X8.2441Y-3.6842
X8.2441Y-4.4343
X8.2441Y-5.1843
X8.2941Y-2.0842
X8.2941Y-2.8342
X8.2941Y-3.5842
X8.2941Y-4.3343
X8.2941Y-5.0843
X8.4941Y-2.0842
X8.4941Y-2.8342
X8.4941Y-3.5842
X8.4941Y-4.3343
X8.4941Y-5.0843
X8.5441Y-2.1842
X8.5441Y-2.9342
X8.5441Y-3.6842
X8.5441Y-4.4343
X8.5441Y-5.1843
T5
X3.5643Y-5.4935
X3.8941Y-4.4083
X4.3879Y-5.2763
X4.6441Y-2.0205
X4.6441Y-2.7705
X4.6441Y-3.5205
X4.6441Y-4.2705
X5.3941Y-1.922
X5.3941Y-2.672
X5.3941Y-3.422
X5.3941Y-4.172
X6.1441Y-1.8236
X6.1441Y-2.5736
X6.1441Y-3.3236
X6.1441Y-4.0736
X6.8941Y-2.0086
X6.8941Y-2.7586
X6.8941Y-3.5086
X6.8941Y-4.2587
X7.6441Y-2.2842
X7.6441Y-3.0342
X7.6441Y-3.7842
X7.6441Y-4.5343
X7.6441Y-5.2843
X8.3941Y-2.2842
X8.3941Y-3.0342
X8.3941Y-3.7842
X8.3941Y-4.5343
X8.3941Y-5.2843
T6
X3.688Y-4.9687
X3.9996Y-5.4728
X5.0026Y-3.8955
X5.0356Y-2.297
X6.5026Y-2.1986
X6.5356Y-3.8836
X8.0191Y-2.6592
X8.0191Y-4.9093
T7
X3.5643Y-5.4935
X4.3879Y-5.2763
M30
