G04 #@! TF.GenerationSoftware,KiCad,Pcbnew,8.0.5*
G04 #@! TF.CreationDate,2024-11-19T21:37:07+08:00*
G04 #@! TF.ProjectId,keyball61_right,6b657962-616c-46c3-9631-5f7269676874,rev?*
G04 #@! TF.SameCoordinates,Original*
G04 #@! TF.FileFunction,Soldermask,Top*
G04 #@! TF.FilePolarity,Negative*
%FSLAX46Y46*%
G04 Gerber Fmt 4.6, Leading zero omitted, Abs format (unit mm)*
G04 Created by KiCad (PCBNEW 8.0.5) date 2024-11-19 21:37:07*
%MOMM*%
%LPD*%
G01*
G04 APERTURE LIST*
G04 Aperture macros list*
%AMRoundRect*
0 Rectangle with rounded corners*
0 $1 Rounding radius*
0 $2 $3 $4 $5 $6 $7 $8 $9 X,Y pos of 4 corners*
0 Add a 4 corners polygon primitive as box body*
4,1,4,$2,$3,$4,$5,$6,$7,$8,$9,$2,$3,0*
0 Add four circle primitives for the rounded corners*
1,1,$1+$1,$2,$3*
1,1,$1+$1,$4,$5*
1,1,$1+$1,$6,$7*
1,1,$1+$1,$8,$9*
0 Add four rect primitives between the rounded corners*
20,1,$1+$1,$2,$3,$4,$5,0*
20,1,$1+$1,$4,$5,$6,$7,0*
20,1,$1+$1,$6,$7,$8,$9,0*
20,1,$1+$1,$8,$9,$2,$3,0*%
%AMRotRect*
0 Rectangle, with rotation*
0 The origin of the aperture is its center*
0 $1 length*
0 $2 width*
0 $3 Rotation angle, in degrees counterclockwise*
0 Add horizontal line*
21,1,$1,$2,0,0,$3*%
%AMFreePoly0*
4,1,7,0.575000,0.000000,0.175000,-0.571500,-0.175000,-0.571500,-0.300000,-0.571500,-0.300000,0.571500,0.175000,0.571500,0.575000,0.000000,0.575000,0.000000,$1*%
%AMFreePoly1*
4,1,8,0.317500,-0.571500,0.175000,-0.571500,-0.175000,-0.571500,-0.575000,-0.571500,-0.175000,0.000000,-0.575000,0.571500,0.317500,0.571500,0.317500,-0.571500,0.317500,-0.571500,$1*%
G04 Aperture macros list end*
%ADD10C,1.397000*%
%ADD11C,1.500000*%
%ADD12C,2.500000*%
%ADD13C,4.300000*%
%ADD14C,1.200000*%
%ADD15R,2.100000X0.800000*%
%ADD16FreePoly0,0.000000*%
%ADD17FreePoly1,0.000000*%
%ADD18FreePoly0,90.000000*%
%ADD19FreePoly1,90.000000*%
%ADD20FreePoly0,180.000000*%
%ADD21FreePoly1,180.000000*%
%ADD22R,0.400000X0.600000*%
%ADD23R,0.635000X1.143000*%
%ADD24R,1.700000X1.000000*%
%ADD25RoundRect,0.200000X0.275000X-0.200000X0.275000X0.200000X-0.275000X0.200000X-0.275000X-0.200000X0*%
%ADD26C,1.900000*%
%ADD27C,1.700000*%
%ADD28C,3.000000*%
%ADD29C,4.100000*%
%ADD30R,2.300000X2.000000*%
%ADD31RotRect,2.300000X2.000000X10.000000*%
%ADD32RotRect,2.600000X2.600000X190.000000*%
%ADD33C,1.524000*%
%ADD34RotRect,2.300000X2.000000X20.000000*%
%ADD35RotRect,2.600000X2.600000X200.000000*%
%ADD36C,2.000000*%
%ADD37R,1.300000X0.950000*%
%ADD38O,1.600000X1.600000*%
%ADD39R,1.700000X1.700000*%
%ADD40O,1.700000X1.700000*%
G04 APERTURE END LIST*
D10*
X94280001Y-81879712D03*
X96820001Y-81879712D03*
X99360001Y-81879712D03*
X101900001Y-81879712D03*
D11*
X178271000Y-124925000D03*
X178271000Y-127465000D03*
X178271000Y-130005000D03*
X178271000Y-132545000D03*
X178271000Y-135085000D03*
X178271000Y-137625000D03*
X178271000Y-140165000D03*
D12*
X104989000Y-99294700D03*
X90989100Y-99294700D03*
D13*
X165167000Y-55844700D03*
X127903000Y-58344700D03*
X127067000Y-98944700D03*
X93675100Y-126205000D03*
X203685000Y-67544700D03*
X203685000Y-124695000D03*
X101589000Y-139008000D03*
X166003000Y-98644700D03*
D14*
X92004100Y-93870000D03*
X99004100Y-93870000D03*
X92004100Y-92120000D03*
X99004100Y-92120000D03*
D15*
X102304100Y-94220000D03*
X102304100Y-91770000D03*
X93804100Y-95970000D03*
X93804100Y-90020000D03*
X96804100Y-95970000D03*
X96804100Y-90020000D03*
X100804100Y-95970000D03*
X100804100Y-90020000D03*
D16*
X181809620Y-131669424D03*
D17*
X182810380Y-131669424D03*
D18*
X95110000Y-76570080D03*
D19*
X95110000Y-75569320D03*
D16*
X181809620Y-133769424D03*
D17*
X182810380Y-133769424D03*
D18*
X97210000Y-76570080D03*
D19*
X97210000Y-75569320D03*
D16*
X181809620Y-135869424D03*
D17*
X182810380Y-135869424D03*
D18*
X99310000Y-76570080D03*
D19*
X99310000Y-75569320D03*
D16*
X181809620Y-137969424D03*
D17*
X182810380Y-137969424D03*
D18*
X101400000Y-76570080D03*
D19*
X101400000Y-75569320D03*
D20*
X105680381Y-90559712D03*
D21*
X104679621Y-90559712D03*
D22*
X106010000Y-94869700D03*
D23*
X106510380Y-94869700D03*
X105509620Y-94869700D03*
D24*
X104960000Y-125270000D03*
X104960000Y-123870000D03*
X99460000Y-123870000D03*
X99460000Y-125270000D03*
X130259000Y-112529712D03*
X130259000Y-111129712D03*
X124759000Y-111129712D03*
X124759000Y-112529712D03*
X216189000Y-124705000D03*
X216189000Y-123305000D03*
X210689000Y-123305000D03*
X210689000Y-124705000D03*
X216269000Y-87744700D03*
X216269000Y-86344700D03*
X210769000Y-86344700D03*
X210769000Y-87744700D03*
X185699000Y-61234700D03*
X185699000Y-59834700D03*
X180199000Y-59834700D03*
X180199000Y-61234700D03*
X146409000Y-59174700D03*
X146409000Y-57774700D03*
X140909000Y-57774700D03*
X140909000Y-59174700D03*
X215960000Y-62219700D03*
X215960000Y-63619700D03*
X210460000Y-63619700D03*
X210460000Y-62219700D03*
X215960000Y-81269700D03*
X215960000Y-82669700D03*
X210460000Y-82669700D03*
X210460000Y-81269700D03*
X215960000Y-100320000D03*
X215960000Y-101720000D03*
X210460000Y-101720000D03*
X210460000Y-100320000D03*
X215960000Y-119370000D03*
X215960000Y-120770000D03*
X210460000Y-120770000D03*
X210460000Y-119370000D03*
X215960000Y-138420000D03*
X215960000Y-139820000D03*
X210460000Y-139820000D03*
X210460000Y-138420000D03*
X196910000Y-62219700D03*
X196910000Y-63619700D03*
X191410000Y-63619700D03*
X191410000Y-62219700D03*
X196910000Y-81269700D03*
X196910000Y-82669700D03*
X191410000Y-82669700D03*
X191410000Y-81269700D03*
X196910000Y-100320000D03*
X196910000Y-101720000D03*
X191410000Y-101720000D03*
X191410000Y-100320000D03*
X196910000Y-119370000D03*
X196910000Y-120770000D03*
X191410000Y-120770000D03*
X191410000Y-119370000D03*
X196910000Y-138420000D03*
X196910000Y-139820000D03*
X191410000Y-139820000D03*
X191410000Y-138420000D03*
X177860000Y-55219700D03*
X177860000Y-56619700D03*
X172360000Y-56619700D03*
X172360000Y-55219700D03*
X177860000Y-74269700D03*
X177860000Y-75669700D03*
X172360000Y-75669700D03*
X172360000Y-74269700D03*
X177860000Y-93319700D03*
X177860000Y-94719700D03*
X172360000Y-94719700D03*
X172360000Y-93319700D03*
X177860000Y-112370000D03*
X177860000Y-113770000D03*
X172360000Y-113770000D03*
X172360000Y-112370000D03*
X158810000Y-50519700D03*
X158810000Y-51919700D03*
X153310000Y-51919700D03*
X153310000Y-50519700D03*
X158810000Y-69569700D03*
X158810000Y-70969700D03*
X153310000Y-70969700D03*
X153310000Y-69569700D03*
X158810000Y-88619700D03*
X158810000Y-90019700D03*
X153310000Y-90019700D03*
X153310000Y-88619700D03*
X158810000Y-107670000D03*
X158810000Y-109070000D03*
X153310000Y-109070000D03*
X153310000Y-107670000D03*
X139760000Y-53019700D03*
X139760000Y-54419700D03*
X134260000Y-54419700D03*
X134260000Y-53019700D03*
X139760000Y-72069700D03*
X139760000Y-73469700D03*
X134260000Y-73469700D03*
X134260000Y-72069700D03*
X139760000Y-91119700D03*
X139760000Y-92519700D03*
X134260000Y-92519700D03*
X134260000Y-91119700D03*
X139760000Y-110170000D03*
X139760000Y-111570000D03*
X134260000Y-111570000D03*
X134260000Y-110170000D03*
X120710000Y-55519700D03*
X120710000Y-56919700D03*
X115210000Y-56919700D03*
X115210000Y-55519700D03*
X120710000Y-74569700D03*
X120710000Y-75969700D03*
X115210000Y-75969700D03*
X115210000Y-74569700D03*
X120710000Y-93619700D03*
X120710000Y-95019700D03*
X115210000Y-95019700D03*
X115210000Y-93619700D03*
X120710000Y-112670000D03*
X120710000Y-114070000D03*
X115210000Y-114070000D03*
X115210000Y-112670000D03*
X101660000Y-116170000D03*
X101660000Y-117570000D03*
X96160000Y-117570000D03*
X96160000Y-116170000D03*
D25*
X96110001Y-87419712D03*
X96110001Y-85769712D03*
D26*
X208130000Y-58019700D03*
D27*
X208710000Y-58019700D03*
D28*
X209400000Y-55479700D03*
X210670000Y-52939700D03*
D29*
X213210000Y-58019700D03*
D28*
X215750000Y-52939700D03*
X217020000Y-55479699D03*
D27*
X217710000Y-58019700D03*
D26*
X218290000Y-58019700D03*
D30*
X207510000Y-52899700D03*
X220210000Y-55439700D03*
D26*
X189080000Y-58019700D03*
D27*
X189660000Y-58019700D03*
D28*
X190350000Y-55479700D03*
X191620000Y-52939700D03*
D29*
X194160000Y-58019700D03*
D28*
X196700000Y-52939700D03*
X197970000Y-55479699D03*
D27*
X198660000Y-58019700D03*
D26*
X199240000Y-58019700D03*
D30*
X188460000Y-52899700D03*
X201160000Y-55439700D03*
D26*
X170030000Y-51019700D03*
D27*
X170610000Y-51019700D03*
D28*
X171300000Y-48479700D03*
X172570000Y-45939700D03*
D29*
X175110000Y-51019700D03*
D28*
X177650000Y-45939700D03*
X178920000Y-48479699D03*
D27*
X179610000Y-51019700D03*
D26*
X180190000Y-51019700D03*
D30*
X169410000Y-45899700D03*
X182110000Y-48439700D03*
D26*
X150980000Y-46319700D03*
D27*
X151560000Y-46319700D03*
D28*
X152250000Y-43779700D03*
X153520000Y-41239700D03*
D29*
X156060000Y-46319700D03*
D28*
X158600000Y-41239700D03*
X159870000Y-43779699D03*
D27*
X160560000Y-46319700D03*
D26*
X161140000Y-46319700D03*
D30*
X150360000Y-41199700D03*
X163060000Y-43739700D03*
D26*
X131930000Y-48819700D03*
D27*
X132510000Y-48819700D03*
D28*
X133200000Y-46279700D03*
X134470000Y-43739700D03*
D29*
X137010000Y-48819700D03*
D28*
X139550000Y-43739700D03*
X140820000Y-46279699D03*
D27*
X141510000Y-48819700D03*
D26*
X142090000Y-48819700D03*
D30*
X131310000Y-43699700D03*
X144010000Y-46239700D03*
D26*
X112880000Y-51319700D03*
D27*
X113460000Y-51319700D03*
D28*
X114150000Y-48779700D03*
X115420000Y-46239700D03*
D29*
X117960000Y-51319700D03*
D28*
X120500000Y-46239700D03*
X121770000Y-48779699D03*
D27*
X122460000Y-51319700D03*
D26*
X123040000Y-51319700D03*
D30*
X112260000Y-46199700D03*
X124960000Y-48739700D03*
D26*
X208130000Y-77069700D03*
D27*
X208710000Y-77069700D03*
D28*
X209400000Y-74529700D03*
X210670000Y-71989700D03*
D29*
X213210000Y-77069700D03*
D28*
X215750000Y-71989700D03*
X217020000Y-74529699D03*
D27*
X217710000Y-77069700D03*
D26*
X218290000Y-77069700D03*
D30*
X207510000Y-71949700D03*
X220210000Y-74489700D03*
D26*
X170030000Y-70069700D03*
D27*
X170610000Y-70069700D03*
D28*
X171300000Y-67529700D03*
X172570000Y-64989700D03*
D29*
X175110000Y-70069700D03*
D28*
X177650000Y-64989700D03*
X178920000Y-67529699D03*
D27*
X179610000Y-70069700D03*
D26*
X180190000Y-70069700D03*
D30*
X169410000Y-64949700D03*
X182110000Y-67489700D03*
D26*
X150980000Y-65369700D03*
D27*
X151560000Y-65369700D03*
D28*
X152250000Y-62829700D03*
X153520000Y-60289700D03*
D29*
X156060000Y-65369700D03*
D28*
X158600000Y-60289700D03*
X159870000Y-62829699D03*
D27*
X160560000Y-65369700D03*
D26*
X161140000Y-65369700D03*
D30*
X150360000Y-60249700D03*
X163060000Y-62789700D03*
D26*
X131930000Y-67869700D03*
D27*
X132510000Y-67869700D03*
D28*
X133200000Y-65329700D03*
X134470000Y-62789700D03*
D29*
X137010000Y-67869700D03*
D28*
X139550000Y-62789700D03*
X140820000Y-65329699D03*
D27*
X141510000Y-67869700D03*
D26*
X142090000Y-67869700D03*
D30*
X131310000Y-62749700D03*
X144010000Y-65289700D03*
D26*
X112880000Y-70369700D03*
D27*
X113460000Y-70369700D03*
D28*
X114150000Y-67829700D03*
X115420000Y-65289700D03*
D29*
X117960000Y-70369700D03*
D28*
X120500000Y-65289700D03*
X121770000Y-67829699D03*
D27*
X122460000Y-70369700D03*
D26*
X123040000Y-70369700D03*
D30*
X112260000Y-65249700D03*
X124960000Y-67789700D03*
D26*
X208130000Y-96119700D03*
D27*
X208710000Y-96119700D03*
D28*
X209400000Y-93579700D03*
X210670000Y-91039700D03*
D29*
X213210000Y-96119700D03*
D28*
X215750000Y-91039700D03*
X217020000Y-93579699D03*
D27*
X217710000Y-96119700D03*
D26*
X218290000Y-96119700D03*
D30*
X207510000Y-90999700D03*
X220210000Y-93539700D03*
D26*
X189080000Y-96119700D03*
D27*
X189660000Y-96119700D03*
D28*
X190350000Y-93579700D03*
X191620000Y-91039700D03*
D29*
X194160000Y-96119700D03*
D28*
X196700000Y-91039700D03*
X197970000Y-93579699D03*
D27*
X198660000Y-96119700D03*
D26*
X199240000Y-96119700D03*
D30*
X188460000Y-90999700D03*
X201160000Y-93539700D03*
D26*
X170030000Y-89119700D03*
D27*
X170610000Y-89119700D03*
D28*
X171300000Y-86579700D03*
X172570000Y-84039700D03*
D29*
X175110000Y-89119700D03*
D28*
X177650000Y-84039700D03*
X178920000Y-86579699D03*
D27*
X179610000Y-89119700D03*
D26*
X180190000Y-89119700D03*
D30*
X169410000Y-83999700D03*
X182110000Y-86539700D03*
D26*
X150980000Y-84419700D03*
D27*
X151560000Y-84419700D03*
D28*
X152250000Y-81879700D03*
X153520000Y-79339700D03*
D29*
X156060000Y-84419700D03*
D28*
X158600000Y-79339700D03*
X159870000Y-81879699D03*
D27*
X160560000Y-84419700D03*
D26*
X161140000Y-84419700D03*
D30*
X150360000Y-79299700D03*
X163060000Y-81839700D03*
D26*
X131930000Y-86919700D03*
D27*
X132510000Y-86919700D03*
D28*
X133200000Y-84379700D03*
X134470000Y-81839700D03*
D29*
X137010000Y-86919700D03*
D28*
X139550000Y-81839700D03*
X140820000Y-84379699D03*
D27*
X141510000Y-86919700D03*
D26*
X142090000Y-86919700D03*
D30*
X131310000Y-81799700D03*
X144010000Y-84339700D03*
D26*
X112880000Y-89419700D03*
D27*
X113460000Y-89419700D03*
D28*
X114150000Y-86879700D03*
X115420000Y-84339700D03*
D29*
X117960000Y-89419700D03*
D28*
X120500000Y-84339700D03*
X121770000Y-86879699D03*
D27*
X122460000Y-89419700D03*
D26*
X123040000Y-89419700D03*
D30*
X112260000Y-84299700D03*
X124960000Y-86839700D03*
D26*
X208130000Y-115170000D03*
D27*
X208710000Y-115170000D03*
D28*
X209400000Y-112630000D03*
X210670000Y-110090000D03*
D29*
X213210000Y-115170000D03*
D28*
X215750000Y-110090000D03*
X217020000Y-112629999D03*
D27*
X217710000Y-115170000D03*
D26*
X218290000Y-115170000D03*
D30*
X207510000Y-110050000D03*
X220210000Y-112590000D03*
D26*
X189080000Y-115170000D03*
D27*
X189660000Y-115170000D03*
D28*
X190350000Y-112630000D03*
X191620000Y-110090000D03*
D29*
X194160000Y-115170000D03*
D28*
X196700000Y-110090000D03*
X197970000Y-112629999D03*
D27*
X198660000Y-115170000D03*
D26*
X199240000Y-115170000D03*
D30*
X188460000Y-110050000D03*
X201160000Y-112590000D03*
D26*
X170030000Y-108170000D03*
D27*
X170610000Y-108170000D03*
D28*
X171300000Y-105630000D03*
X172570000Y-103090000D03*
D29*
X175110000Y-108170000D03*
D28*
X177650000Y-103090000D03*
X178920000Y-105629999D03*
D27*
X179610000Y-108170000D03*
D26*
X180190000Y-108170000D03*
D30*
X169410000Y-103050000D03*
X182110000Y-105590000D03*
D26*
X150980000Y-103470000D03*
D27*
X151560000Y-103470000D03*
D28*
X152250000Y-100930000D03*
X153520000Y-98390000D03*
D29*
X156060000Y-103470000D03*
D28*
X158600000Y-98390000D03*
X159870000Y-100929999D03*
D27*
X160560000Y-103470000D03*
D26*
X161140000Y-103470000D03*
D30*
X150360000Y-98350000D03*
X163060000Y-100890000D03*
D26*
X131930000Y-105970000D03*
D27*
X132510000Y-105970000D03*
D28*
X133200000Y-103430000D03*
X134470000Y-100890000D03*
D29*
X137010000Y-105970000D03*
D28*
X139550000Y-100890000D03*
X140820000Y-103429999D03*
D27*
X141510000Y-105970000D03*
D26*
X142090000Y-105970000D03*
D30*
X131310000Y-100850000D03*
X144010000Y-103390000D03*
D26*
X112880000Y-108470000D03*
D27*
X113460000Y-108470000D03*
D28*
X114150000Y-105930000D03*
X115420000Y-103390000D03*
D29*
X117960000Y-108470000D03*
D28*
X120500000Y-103390000D03*
X121770000Y-105929999D03*
D27*
X122460000Y-108470000D03*
D26*
X123040000Y-108470000D03*
D30*
X112260000Y-103350000D03*
X124960000Y-105890000D03*
D26*
X93830000Y-111970000D03*
D27*
X94410000Y-111970000D03*
D28*
X95100000Y-109430000D03*
X96370000Y-106890000D03*
D29*
X98910000Y-111970000D03*
D28*
X101450000Y-106890000D03*
X102720000Y-109429999D03*
D27*
X103410000Y-111970000D03*
D26*
X103990000Y-111970000D03*
D30*
X93210000Y-106850000D03*
X105910000Y-109390000D03*
D26*
X208130000Y-134220000D03*
D27*
X208710000Y-134220000D03*
D28*
X209400000Y-131680000D03*
X210670000Y-129140000D03*
D29*
X213210000Y-134220000D03*
D28*
X215750000Y-129140000D03*
X217020000Y-131679999D03*
D27*
X217710000Y-134220000D03*
D26*
X218290000Y-134220000D03*
D30*
X207510000Y-129100000D03*
X220210000Y-131640000D03*
D26*
X116454823Y-133134867D03*
D28*
X115733541Y-129504970D03*
D27*
X115883635Y-133235583D03*
D28*
X115645184Y-135856812D03*
X114835544Y-138578757D03*
D29*
X111452000Y-134017000D03*
D28*
X110427476Y-128206634D03*
X110427476Y-128206634D03*
X109832721Y-139460890D03*
X108140949Y-137180012D03*
D27*
X107020365Y-134798417D03*
D28*
X105885463Y-131241452D03*
D26*
X106449177Y-134899133D03*
D31*
X117954483Y-138069421D03*
D32*
X113677341Y-127633595D03*
D31*
X105006358Y-137773341D03*
D32*
X102635597Y-131814491D03*
D33*
X89847700Y-49060000D03*
X106394100Y-47790000D03*
X89847700Y-51600000D03*
X106394100Y-50330000D03*
X89847700Y-54140000D03*
X106394100Y-52870000D03*
X89847700Y-56680000D03*
X106394100Y-55410000D03*
X89847700Y-59220000D03*
X106394100Y-57950000D03*
X89847700Y-61760000D03*
X106394100Y-60490000D03*
X89847700Y-64300000D03*
X106394100Y-63030000D03*
X89847700Y-66840000D03*
X106394100Y-65570000D03*
X89847700Y-69380000D03*
X106394100Y-68110000D03*
X89847700Y-71920000D03*
X106394100Y-70650000D03*
X89847700Y-74460000D03*
X106394100Y-73190000D03*
X89847700Y-77000000D03*
X106394100Y-75730000D03*
X91174100Y-75730000D03*
X105087700Y-77000000D03*
X91174100Y-73190000D03*
X105087700Y-74460000D03*
X91174100Y-70650000D03*
X105087700Y-71920000D03*
X91174100Y-68110000D03*
X105087700Y-69380000D03*
X91174100Y-65570000D03*
X105087700Y-66840000D03*
X91174100Y-63030000D03*
X105087700Y-64300000D03*
X91174100Y-60490000D03*
X105087700Y-61760000D03*
X91174100Y-57950000D03*
X105087700Y-59220000D03*
X91174100Y-55410000D03*
X105087700Y-56680000D03*
X91174100Y-52870000D03*
X105087700Y-54140000D03*
X91174100Y-50330000D03*
X105087700Y-51600000D03*
X91174100Y-47790000D03*
X105087700Y-49060000D03*
D26*
X189080000Y-134220000D03*
D27*
X189660000Y-134220000D03*
D28*
X190350000Y-131680000D03*
X191620000Y-129140000D03*
D29*
X194160000Y-134220000D03*
D28*
X196700000Y-129140000D03*
X197970000Y-131679999D03*
D27*
X198660000Y-134220000D03*
D26*
X199240000Y-134220000D03*
D30*
X188460000Y-129100000D03*
X201160000Y-131640000D03*
D26*
X95306139Y-137796538D03*
D28*
X93965489Y-134347038D03*
D27*
X94761117Y-137994909D03*
D28*
X94981460Y-140617723D03*
X94656783Y-143438907D03*
D29*
X90532500Y-139534000D03*
D28*
X88514581Y-133989814D03*
X88514581Y-133989814D03*
X89883143Y-145176370D03*
X87821003Y-143223917D03*
D27*
X86303883Y-141073091D03*
D28*
X84568562Y-137767238D03*
D26*
X85758861Y-141271462D03*
D34*
X97639891Y-142395711D03*
D35*
X91615567Y-132861147D03*
D34*
X84837064Y-144352548D03*
D35*
X81467577Y-138895904D03*
D33*
X91010001Y-80209712D03*
X91010001Y-85209712D03*
D36*
X93510001Y-79209712D03*
X93510001Y-86209712D03*
D37*
X201895000Y-61169700D03*
X205445000Y-61169700D03*
X192335000Y-67469700D03*
X195885000Y-67469700D03*
X171735000Y-60469700D03*
X175285000Y-60469700D03*
X154295001Y-54329712D03*
X157845001Y-54329712D03*
X132835000Y-58369700D03*
X136385000Y-58369700D03*
X126555000Y-51899700D03*
X130105000Y-51899700D03*
X211335000Y-67369700D03*
X214885000Y-67369700D03*
X192535000Y-86269700D03*
X196085000Y-86269700D03*
X173435000Y-78369700D03*
X176985000Y-78369700D03*
X159635000Y-74769700D03*
X163185000Y-74769700D03*
X147235000Y-74769700D03*
X150785000Y-74769700D03*
X116235000Y-60869700D03*
X119785000Y-60869700D03*
X211475000Y-104290000D03*
X215025000Y-104290000D03*
X201935000Y-105770000D03*
X205485000Y-105770000D03*
X173435000Y-80569700D03*
X176985000Y-80569700D03*
X164035000Y-92769700D03*
X167585000Y-92769700D03*
X135305001Y-75909712D03*
X138855001Y-75909712D03*
X116255001Y-78399712D03*
X119805001Y-78399712D03*
X211485000Y-106730000D03*
X215035000Y-106730000D03*
X192215000Y-106830000D03*
X195765000Y-106830000D03*
X173385000Y-98669700D03*
X176935000Y-98669700D03*
X154235000Y-93869700D03*
X157785000Y-93869700D03*
X135335000Y-96469700D03*
X138885000Y-96469700D03*
X116345000Y-98869700D03*
X119895000Y-98869700D03*
X96835000Y-103470000D03*
X100385000Y-103470000D03*
X201925000Y-137630000D03*
X205475000Y-137630000D03*
X192335000Y-124370000D03*
X195885000Y-124370000D03*
X111515001Y-121839712D03*
X115065001Y-121839712D03*
X96995001Y-129159712D03*
X100545001Y-129159712D03*
X102015001Y-85339712D03*
X105565001Y-85339712D03*
X154275001Y-56669712D03*
X157825001Y-56669712D03*
X135285001Y-78229712D03*
X138835001Y-78229712D03*
X116275001Y-80829712D03*
X119825001Y-80829712D03*
X102005001Y-88179712D03*
X105555001Y-88179712D03*
D38*
X90985001Y-96894712D03*
X90985001Y-94894712D03*
X90985001Y-92894712D03*
D36*
X90985001Y-90744712D03*
X90985001Y-99044712D03*
D39*
X96735001Y-54169712D03*
D40*
X99275001Y-54169712D03*
D24*
X149160000Y-111590000D03*
X149160000Y-110190000D03*
X143660000Y-110190000D03*
X143660000Y-111590000D03*
D26*
X189080000Y-77069700D03*
D27*
X189660000Y-77069700D03*
D28*
X190350000Y-74529700D03*
X191620000Y-71989700D03*
D29*
X194160000Y-77069700D03*
D28*
X196700000Y-71989700D03*
X197970000Y-74529699D03*
D27*
X198660000Y-77069700D03*
D26*
X199240000Y-77069700D03*
D30*
X188460000Y-71949700D03*
X201160000Y-74489700D03*
M02*
