M48
; DRILL file {KiCad 8.0.5} date 2024-11-19T21:37:09+0800
; FORMAT={-:-/ absolute / inch / decimal}
; #@! TF.CreationDate,2024-11-19T21:37:09+08:00
; #@! TF.GenerationSoftware,Kicad,Pcbnew,8.0.5
; #@! TF.FileFunction,Plated,1,2,PTH
FMAT,2
INCH
; #@! TA.AperFunction,Plated,PTH,ViaDrill
T1C0.0118
; #@! TA.AperFunction,Plated,PTH,ComponentDrill
T2C0.0118
; #@! TA.AperFunction,Plated,PTH,ViaDrill
T3C0.0157
; #@! TA.AperFunction,Plated,PTH,ComponentDrill
T4C0.0320
; #@! TA.AperFunction,Plated,PTH,ComponentDrill
T5C0.0394
; #@! TA.AperFunction,Plated,PTH,ComponentDrill
T6C0.0512
; #@! TA.AperFunction,Plated,PTH,ComponentDrill
T7C0.0866
%
G90
G05
T1
X3.6234Y-3.2409
X3.649Y-3.3089
X3.6825Y-2.9998
X3.712Y-2.925
X3.756Y-3.0581
X3.8281Y-3.4033
X3.8478Y-3.2655
X3.9157Y-3.3039
T3
X3.1598Y-5.3079
X3.2563Y-5.5894
X3.3823Y-5.8886
X3.4465Y-5.4169
X3.528Y-1.6996
X3.5374Y-5.1449
X3.5407Y-3.2183
X3.5496Y-3.2961
X3.5604Y-4.6561
X3.5811Y-4.2063
X3.5846Y-4.0622
X3.601Y-3.0932
X3.604Y-3.4552
X3.6146Y-1.6996
X3.6636Y-5.1338
X3.6669Y-4.7933
X3.672Y-4.135
X3.6729Y-2.2548
X3.6729Y-2.0649
X3.6817Y-4.5844
X3.713Y-1.9791
X3.7153Y-5.1704
X3.7161Y-5.7795
X3.7268Y-2.8917
X3.7706Y-2.7843
X3.7731Y-2.9341
X3.7848Y-3.4417
X3.7858Y-4.6775
X3.7858Y-3.9736
X3.7928Y-2.0611
X3.8112Y-3.616
X3.8183Y-2.4517
X3.8183Y-2.5264
X3.8183Y-2.6365
X3.8183Y-2.6972
X3.8183Y-2.7365
X3.8215Y-5.3529
X3.8291Y-5.0083
X3.8356Y-4.7669
X3.8625Y-3.0816
X3.8749Y-2.8149
X3.8846Y-2.3815
X3.8931Y-2.5494
X3.8931Y-2.6065
X3.8953Y-3.8516
X3.9049Y-5.0293
X3.9217Y-2.3244
X3.9217Y-2.4837
X3.924Y-2.3815
X3.9292Y-3.3728
X3.9295Y-2.1961
X3.9402Y-3.861
X3.9409Y-5.3275
X3.9534Y-2.0611
X3.9541Y-3.9786
X3.9607Y-2.2315
X3.9607Y-2.2841
X3.9607Y-2.9387
X3.963Y-3.4929
X3.9646Y-3.124
X3.9728Y-2.7843
X3.982Y-3.8504
X3.9883Y-4.7652
X3.9925Y-3.0716
X4.0034Y-4.0719
X4.0039Y-2.1795
X4.015Y-2.8984
X4.0161Y-5.0031
X4.0193Y-3.4244
X4.0291Y-5.085
X4.0306Y-4.5201
X4.0516Y-2.7043
X4.0551Y-5.6567
X4.0555Y-1.9988
X4.0654Y-4.7079
X4.0661Y-5.3098
X4.0674Y-4.7652
X4.081Y-4.5094
X4.0842Y-4.5736
X4.0907Y-4.6323
X4.1074Y-4.1434
X4.1118Y-1.6968
X4.1209Y-4.8264
X4.1402Y-1.8685
X4.1493Y-4.5818
X4.1606Y-3.5008
X4.1724Y-4.7957
X4.1728Y-4.8307
X4.1803Y-3.1772
X4.2Y-3.3067
X4.2094Y-4.5224
X4.2118Y-3.7961
X4.2315Y-3.1905
X4.2428Y-4.8675
X4.2484Y-1.9949
X4.2512Y-2.2421
X4.2681Y-1.9752
X4.2681Y-2.7311
X4.3075Y-2.9358
X4.3075Y-4.7189
X4.3093Y-4.6703
X4.3157Y-4.6173
X4.3182Y-2.8363
X4.324Y-1.7216
X4.3315Y-4.8488
X4.337Y-2.0492
X4.3395Y-4.2794
X4.3395Y-4.3475
X4.347Y-3.1494
X4.3476Y-4.074
X4.3516Y-4.5894
X4.3685Y-2.0043
X4.3685Y-2.4901
X4.3685Y-3.4913
X4.3898Y-4.5531
X4.3982Y-3.5635
X4.4114Y-2.8925
X4.4127Y-3.839
X4.4269Y-3.2302
X4.4379Y-2.317
X4.4445Y-5.5878
X4.4453Y-4.6913
X4.4494Y-2.4517
X4.4681Y-3.0378
X4.4726Y-2.1483
X4.4735Y-3.6721
X4.475Y-3.9356
X4.4755Y-4.4255
X4.477Y-4.8211
X4.4787Y-2.9358
X4.513Y-3.1878
X4.524Y-4.3843
X4.5299Y-4.5354
X4.5355Y-2.8192
X4.5358Y-2.8781
X4.5358Y-3.7901
X4.5371Y-3.6303
X4.5941Y-5.0106
X4.6159Y-4.7006
X4.6394Y-3.0866
X4.6428Y-3.9863
X4.6461Y-4.9583
X4.6535Y-4.7295
X4.6665Y-2.3964
X4.6716Y-3.233
X4.6819Y-3.8259
X4.6819Y-3.938
X4.7413Y-5.5252
X4.7487Y-2.1414
X4.7703Y-3.9023
X4.7752Y-3.0866
X4.7797Y-2.3649
X4.7961Y-3.1311
X4.8115Y-2.2944
X4.8315Y-2.1599
X4.8411Y-3.0014
X4.8467Y-2.5055
X4.852Y-4.4993
X4.8694Y-2.3546
X4.8781Y-2.2536
X4.887Y-3.222
X4.8986Y-2.804
X4.9059Y-2.087
X4.9247Y-3.0854
X4.9291Y-4.2768
X4.9333Y-2.0433
X4.937Y-2.1685
X4.9376Y-4.5057
X4.9589Y-2.892
X4.9589Y-3.7665
X4.9815Y-2.4716
X5.0012Y-1.7811
X5.0052Y-4.2645
X5.0079Y-3.1382
X5.0157Y-3.0634
X5.0482Y-1.8907
X5.0484Y-2.7767
X5.0718Y-2.0607
X5.0756Y-2.1071
X5.0793Y-2.4632
X5.083Y-4.1532
X5.0846Y-1.6098
X5.0894Y-3.7677
X5.1157Y-2.6378
X5.134Y-2.9286
X5.135Y-3.6425
X5.1429Y-3.1338
X5.1461Y-3.8909
X5.151Y-2.1241
X5.157Y-2.8207
X5.1776Y-3.5248
X5.1821Y-2.0509
X5.1833Y-2.1545
X5.1896Y-4.451
X5.191Y-2.7962
X5.1917Y-3.6649
X5.2193Y-4.3992
X5.2213Y-2.2275
X5.2297Y-2.3459
X5.2305Y-4.2939
X5.2361Y-2.0504
X5.2396Y-3.7025
X5.2571Y-3.0634
X5.2823Y-2.3472
X5.3348Y-2.2061
X5.3854Y-3.0201
X5.3988Y-2.5405
X5.4112Y-3.1222
X5.4197Y-2.2941
X5.4812Y-3.5029
X5.4895Y-2.2746
X5.4898Y-4.4363
X5.5131Y-2.7307
X5.5175Y-3.798
X5.5287Y-3.1273
X5.5334Y-3.882
X5.5476Y-2.2093
X5.5486Y-3.5394
X5.5724Y-3.0382
X5.5787Y-2.1115
X5.5787Y-2.8358
X5.5831Y-3.7299
X5.5862Y-2.9232
X5.5908Y-4.2925
X5.5912Y-4.4014
X5.602Y-2.007
X5.6443Y-1.8845
X5.6599Y-2.7399
X5.6637Y-3.5973
X5.6754Y-2.1101
X5.6903Y-2.1762
X5.7236Y-2.989
X5.7372Y-4.2215
X5.7385Y-2.521
X5.7433Y-2.7163
X5.7458Y-3.8295
X5.7496Y-1.6669
X5.7522Y-4.1175
X5.7615Y-2.1961
X5.7699Y-2.398
X5.7799Y-3.3602
X5.7967Y-2.8353
X5.8047Y-3.7275
X5.8161Y-2.5831
X5.8161Y-2.7315
X5.828Y-1.5051
X5.834Y-2.075
X5.835Y-3.1362
X5.8402Y-4.2079
X5.8442Y-2.1588
X5.8462Y-2.8685
X5.8472Y-3.7677
X5.8507Y-2.3825
X5.8535Y-1.7925
X5.8551Y-2.1114
X5.8821Y-1.9543
X5.8949Y-2.6827
X5.9016Y-2.2913
X5.9043Y-3.7992
X5.9169Y-1.9106
X5.9277Y-4.4321
X5.9295Y-4.3382
X5.939Y-3.5724
X5.9419Y-4.1646
X5.9638Y-2.063
X5.9657Y-3.7165
X5.9685Y-1.985
X5.971Y-4.3215
X5.9777Y-3.489
X5.9866Y-2.9319
X5.9896Y-2.8404
X6.0174Y-2.6872
X6.0181Y-2.2311
X6.0362Y-2.0945
X6.0397Y-4.0451
X6.0424Y-1.9338
X6.0474Y-3.4357
X6.0722Y-3.7391
X6.1283Y-2.139
X6.1346Y-2.2775
X6.1528Y-2.2149
X6.1539Y-3.6641
X6.1591Y-2.1752
X6.1765Y-3.0011
X6.2353Y-4.3935
X6.2393Y-3.4414
X6.262Y-4.1611
X6.274Y-4.3548
X6.3017Y-3.5829
X6.3055Y-2.1378
X6.3198Y-3.6542
X6.3258Y-2.7935
X6.3287Y-2.7537
X6.3303Y-1.9429
X6.3375Y-4.2193
X6.3587Y-3.4283
X6.3685Y-3.8085
X6.3752Y-4.359
X6.3803Y-2.8167
X6.383Y-3.7174
X6.3945Y-2.6121
X6.4079Y-3.3685
X6.4197Y-1.8653
X6.4288Y-3.489
X6.4306Y-2.9009
X6.4347Y-4.0398
X6.4575Y-2.0453
X6.4581Y-3.5805
X6.4622Y-1.511
X6.4669Y-2.3689
X6.4677Y-3.489
X6.471Y-4.1493
X6.4898Y-2.5571
X6.4992Y-1.9185
X6.5091Y-2.7461
X6.5248Y-3.0593
X6.5413Y-2.9055
X6.5488Y-2.474
X6.5524Y-4.6197
X6.5611Y-3.0011
X6.5846Y-4.3709
X6.5894Y-2.4131
X6.5927Y-4.0533
X6.5986Y-3.5734
X6.6001Y-3.3214
X6.6007Y-1.8071
X6.6008Y-2.5571
X6.6482Y-3.6644
X6.6488Y-3.2246
X6.6618Y-4.5035
X6.6701Y-2.9504
X6.6799Y-2.1642
X6.6805Y-4.3588
X6.6865Y-3.7174
X6.7011Y-2.3161
X6.7264Y-2.1413
X6.7278Y-4.3874
X6.7612Y-2.3369
X6.8209Y-2.4434
X6.8281Y-3.1287
X6.8763Y-3.8963
X6.9186Y-3.0745
X6.9334Y-2.3381
X6.9646Y-5.5862
X6.9668Y-5.2587
X6.9839Y-2.2841
X6.9945Y-3.2144
X7.0142Y-2.8795
X7.0302Y-2.288
X7.0403Y-3.0228
X7.0453Y-4.6795
X7.0486Y-2.1218
X7.0486Y-2.8346
X7.0638Y-4.8382
X7.0639Y-3.7646
X7.0647Y-3.6742
X7.0981Y-4.4883
X7.1009Y-3.6277
X7.105Y-3.9914
X7.1052Y-3.8168
X7.1123Y-5.2665
X7.1185Y-1.7431
X7.1185Y-5.1838
X7.1207Y-5.4323
X7.1214Y-5.3474
X7.1256Y-2.2555
X7.1259Y-2.1661
X7.1445Y-4.5248
X7.1453Y-3.0168
X7.1579Y-4.9752
X7.1579Y-5.1248
X7.1633Y-4.3367
X7.1651Y-4.4068
X7.1772Y-3.8889
X7.182Y-2.7215
X7.182Y-2.9955
X7.1969Y-5.0761
X7.1969Y-1.7016
X7.1972Y-4.6445
X7.2012Y-4.6051
X7.2051Y-4.4749
X7.2051Y-4.5618
X7.2105Y-2.5901
X7.2189Y-5.5835
X7.2258Y-4.673
X7.2354Y-5.3527
X7.2417Y-3.2075
X7.2676Y-5.32
X7.2752Y-4.2751
X7.2805Y-4.5629
X7.296Y-2.311
X7.2962Y-5.5747
X7.2976Y-1.9756
X7.3018Y-4.1769
X7.311Y-2.5113
X7.3176Y-4.2178
X7.3181Y-4.0047
X7.3216Y-4.102
X7.3445Y-3.3756
X7.3498Y-5.0827
X7.3507Y-2.8327
X7.3563Y-3.1777
X7.3615Y-4.2178
X7.3637Y-2.4502
X7.3637Y-2.4946
X7.3685Y-2.0191
X7.3685Y-3.5191
X7.3685Y-4.2696
X7.3754Y-5.2486
X7.3754Y-5.2986
X7.3788Y-4.6611
X7.3837Y-4.6029
X7.4059Y-2.5287
X7.4111Y-2.4458
X7.4248Y-4.7547
X7.427Y-3.8941
X7.4357Y-4.6348
X7.4488Y-2.7224
X7.4488Y-2.7622
X7.4528Y-2.4283
X7.4562Y-3.9629
X7.4719Y-4.9218
X7.4719Y-4.9832
X7.4773Y-3.1996
X7.4817Y-3.9167
X7.4843Y-4.6638
X7.4988Y-3.4307
X7.5358Y-2.5903
X7.5358Y-4.0648
X7.5497Y-3.1211
X7.5568Y-2.7001
X7.5588Y-3.4401
X7.5664Y-4.1625
X7.5785Y-4.9647
X7.6133Y-5.3906
X7.6216Y-2.6248
X7.6218Y-3.3205
X7.6603Y-2.5652
X7.7229Y-2.6138
X7.7424Y-4.9584
X7.7567Y-5.5933
X7.7692Y-3.3962
X7.7896Y-2.7593
X7.8051Y-4.7902
X7.8071Y-3.1047
X7.8261Y-2.4206
X7.8685Y-3.5194
X7.8685Y-4.2694
X7.8729Y-4.0047
X7.89Y-4.8045
X7.901Y-5.5362
X7.9089Y-5.3809
X7.9092Y-2.4477
X7.9093Y-3.3293
X7.9216Y-4.1217
X7.935Y-4.6315
X7.9377Y-2.8697
X7.9394Y-2.1189
X7.9575Y-3.5764
X7.9582Y-3.876
X7.9638Y-3.3091
X7.9737Y-3.0908
X8.0012Y-5.589
X8.0067Y-2.8972
X8.0154Y-1.9736
X8.0205Y-3.4887
X8.0332Y-2.5018
X8.0401Y-4.1673
X8.0425Y-5.4509
X8.0468Y-5.5318
X8.0476Y-4.5922
X8.0592Y-5.2576
X8.0649Y-4.6917
X8.0893Y-3.747
X8.1003Y-4.3327
X8.1005Y-2.8327
X8.1006Y-2.0827
X8.1007Y-3.5827
X8.133Y-5.2459
X8.1403Y-3.4305
X8.1403Y-3.4832
X8.1571Y-3.2626
X8.1621Y-3.1768
X8.1647Y-4.959
X8.1835Y-2.5181
X8.2092Y-3.1891
X8.2179Y-5.5229
X8.2199Y-3.3377
X8.2252Y-2.698
X8.2278Y-4.6996
X8.2285Y-3.9496
X8.2396Y-4.0521
X8.2498Y-4.9524
X8.2592Y-3.1464
X8.273Y-2.3562
X8.2858Y-3.8956
X8.3015Y-3.3377
X8.3016Y-3.1464
X8.3183Y-4.6406
X8.3203Y-2.6098
X8.3258Y-4.1486
X8.3758Y-4.1907
X8.4929Y-2.5495
X8.4964Y-2.7203
X8.499Y-4.811
X8.5006Y-3.355
X8.5028Y-5.3567
X8.5214Y-4.0562
X8.5486Y-2.4025
X8.5603Y-5.0211
X8.5608Y-3.5012
X8.5672Y-4.2648
X8.5752Y-2.5849
X8.5841Y-2.4496
X8.6011Y-4.7698
X8.6081Y-4.073
X8.6114Y-3.2677
X8.6188Y-4.6753
X8.6188Y-4.8432
X8.6216Y-2.4871
X8.6259Y-4.9508
X8.6343Y-5.426
X8.6415Y-3.8801
X8.6813Y-2.2464
X8.6821Y-3.4545
X8.6921Y-5.5858
X8.6992Y-1.9799
X8.7083Y-2.452
X8.7085Y-4.073
X8.7114Y-5.2626
X8.7118Y-4.9862
X8.7224Y-3.0236
X8.7228Y-3.4968
X8.7228Y-4.3398
X8.7228Y-4.6169
T4
X3.5373Y-1.9315
X3.5373Y-2.0315
X3.5373Y-2.1315
X3.5373Y-2.2315
X3.5373Y-2.3315
X3.5373Y-2.4315
X3.5373Y-2.5315
X3.5373Y-2.6315
X3.5373Y-2.7315
X3.5373Y-2.8315
X3.5373Y-2.9315
X3.5373Y-3.0315
X3.5895Y-1.8815
X3.5895Y-1.9815
X3.5895Y-2.0815
X3.5895Y-2.1815
X3.5895Y-2.2815
X3.5895Y-2.3815
X3.5895Y-2.4815
X3.5895Y-2.5815
X3.5895Y-2.6815
X3.5895Y-2.7815
X3.5895Y-2.8815
X3.5895Y-2.9815
X3.7118Y-3.2236
X3.8118Y-3.2236
X3.9118Y-3.2236
X4.0118Y-3.2236
X4.1373Y-1.9315
X4.1373Y-2.0315
X4.1373Y-2.1315
X4.1373Y-2.2315
X4.1373Y-2.3315
X4.1373Y-2.4315
X4.1373Y-2.5315
X4.1373Y-2.6315
X4.1373Y-2.7315
X4.1373Y-2.8315
X4.1373Y-2.9315
X4.1373Y-3.0315
X4.1887Y-1.8815
X4.1887Y-1.9815
X4.1887Y-2.0815
X4.1887Y-2.1815
X4.1887Y-2.2815
X4.1887Y-2.3815
X4.1887Y-2.4815
X4.1887Y-2.5815
X4.1887Y-2.6815
X4.1887Y-2.7815
X4.1887Y-2.8815
X4.1887Y-2.9815
X7.0185Y-4.9183
X7.0185Y-5.0183
X7.0185Y-5.1183
X7.0185Y-5.2183
X7.0185Y-5.3183
X7.0185Y-5.4183
X7.0185Y-5.5183
T5
X3.5821Y-3.6573
X3.5821Y-3.736
X3.5821Y-3.8148
X3.5831Y-3.1579
X3.5831Y-3.3547
X3.8085Y-2.1327
X3.9085Y-2.1327
T6
X3.6815Y-3.1185
X3.6815Y-3.3941
T7
X3.5822Y-3.9092
X4.1334Y-3.9092
T2
G00X3.6675Y-3.5441
M15
G01X3.7187Y-3.5441
M16
G05
G00X3.6675Y-3.7783
M15
G01X3.7187Y-3.7783
M16
G05
G00X3.7856Y-3.5441
M15
G01X3.8368Y-3.5441
M16
G05
G00X3.7856Y-3.7783
M15
G01X3.8368Y-3.7783
M16
G05
G00X3.9431Y-3.5441
M15
G01X3.9943Y-3.5441
M16
G05
G00X3.9431Y-3.7783
M15
G01X3.9943Y-3.7783
M16
G05
G00X4.0021Y-3.613
M15
G01X4.0533Y-3.613
M16
G05
G00X4.0021Y-3.7094
M15
G01X4.0533Y-3.7094
M16
G05
T5
G00X3.5978Y-3.5726
M15
G01X3.5663Y-3.5726
M16
G05
G00X3.5978Y-3.8994
M15
G01X3.5663Y-3.8994
M16
G05
M30
