G04 #@! TF.GenerationSoftware,KiCad,Pcbnew,8.0.5*
G04 #@! TF.CreationDate,2024-11-19T21:37:07+08:00*
G04 #@! TF.ProjectId,keyball61_right,6b657962-616c-46c3-9631-5f7269676874,rev?*
G04 #@! TF.SameCoordinates,Original*
G04 #@! TF.FileFunction,Profile,NP*
%FSLAX46Y46*%
G04 Gerber Fmt 4.6, Leading zero omitted, Abs format (unit mm)*
G04 Created by KiCad (PCBNEW 8.0.5) date 2024-11-19 21:37:07*
%MOMM*%
%LPD*%
G01*
G04 APERTURE LIST*
G04 #@! TA.AperFunction,Profile*
%ADD10C,0.050000*%
G04 #@! TD*
G04 #@! TA.AperFunction,Profile*
%ADD11C,0.120000*%
G04 #@! TD*
G04 APERTURE END LIST*
D10*
X84795475Y-150161271D02*
X79305996Y-135079159D01*
X183134999Y-41994714D02*
G75*
G02*
X184134986Y-42994714I1J-999986D01*
G01*
X222235000Y-142244710D02*
G75*
G02*
X221235000Y-143244700I-1000000J10D01*
G01*
X121560717Y-139371802D02*
G75*
G02*
X119938840Y-141686770I-1969917J-345498D01*
G01*
X89489053Y-42294709D02*
X92239053Y-42294709D01*
X79903666Y-133797445D02*
X87913852Y-130881956D01*
X166084999Y-41994714D02*
X183134999Y-41994714D01*
X203184998Y-48994714D02*
X221234998Y-48994713D01*
X127985001Y-40794714D02*
G75*
G02*
X128985001Y-39794701I999999J14D01*
G01*
X164276431Y-115994713D02*
X128921493Y-115994713D01*
X165276431Y-117494712D02*
X165276431Y-116994713D01*
X102322493Y-144846090D02*
X86077189Y-150758940D01*
X93239053Y-49369712D02*
G75*
G02*
X92738988Y-48869712I47J500112D01*
G01*
X164276431Y-115994713D02*
G75*
G02*
X165276387Y-116994713I-31J-999987D01*
G01*
X147035001Y-38794714D02*
G75*
G02*
X146035001Y-39794701I-1000001J14D01*
G01*
X185134999Y-48994714D02*
X203184998Y-48994714D01*
X89188419Y-102353737D02*
G75*
G02*
X89887818Y-103307476I-300619J-953763D01*
G01*
X118785001Y-120494712D02*
G75*
G02*
X121785001Y-117494701I2999999J12D01*
G01*
X222234998Y-49994713D02*
X222235000Y-142244710D01*
X92239053Y-42294709D02*
G75*
G02*
X92739091Y-42794709I47J-499991D01*
G01*
X104039053Y-42294709D02*
X126985001Y-42294709D01*
X148035001Y-37294714D02*
X164084999Y-37294714D01*
X127985001Y-41294709D02*
X127985001Y-40794714D01*
X103539053Y-48869712D02*
X103539053Y-42794709D01*
X147035001Y-38794714D02*
X147035001Y-38294714D01*
X184134999Y-42994714D02*
X184134999Y-47994714D01*
X165084999Y-38294714D02*
X165084999Y-40994714D01*
X175746371Y-132544712D02*
X175746371Y-119494712D01*
X103539053Y-42794709D02*
G75*
G02*
X104039053Y-42294653I500047J9D01*
G01*
X203185000Y-143244711D02*
X176246371Y-143244711D01*
X164084999Y-37294714D02*
G75*
G02*
X165084986Y-38294714I1J-999986D01*
G01*
X176246371Y-143244711D02*
G75*
G02*
X175746389Y-142744711I29J500011D01*
G01*
X174746371Y-118494712D02*
G75*
G02*
X175746388Y-119494712I29J-999988D01*
G01*
X93239053Y-49369712D02*
X103039053Y-49369712D01*
X221234998Y-48994713D02*
G75*
G02*
X222234987Y-49994713I2J-999987D01*
G01*
X89887785Y-128062880D02*
G75*
G02*
X87913855Y-130881964I-2999985J-20D01*
G01*
X86077190Y-150758940D02*
G75*
G02*
X84795488Y-150161266I-341990J939740D01*
G01*
X127985001Y-41294709D02*
G75*
G02*
X126985001Y-42294701I-1000001J9D01*
G01*
X102322493Y-144846091D02*
G75*
G02*
X102826476Y-144710944I1026107J-2819209D01*
G01*
X166276431Y-118494712D02*
G75*
G02*
X165276388Y-117494712I-31J1000012D01*
G01*
X127360244Y-116744713D02*
G75*
G02*
X125798995Y-117494704I-1561244J1250013D01*
G01*
X92739053Y-42794709D02*
X92739053Y-48869712D01*
X128985001Y-39794714D02*
X146035001Y-39794714D01*
X119938839Y-141686765D02*
X102826476Y-144710944D01*
X88489053Y-66344709D02*
X88489053Y-43294709D01*
X118830099Y-123801862D02*
X121560717Y-139371801D01*
X127360244Y-116744712D02*
G75*
G02*
X128921493Y-115994702I1561256J-1249988D01*
G01*
X88489054Y-101399997D02*
X88489053Y-66344709D01*
X174746371Y-118494712D02*
X166276431Y-118494712D01*
X89887785Y-128062880D02*
X89887785Y-103307476D01*
X79305996Y-135079159D02*
G75*
G02*
X79903647Y-133797394I939704J342059D01*
G01*
X175746371Y-142744711D02*
X175746371Y-132544712D01*
X103539053Y-48869712D02*
G75*
G02*
X103039053Y-49369753I-500053J12D01*
G01*
X89188420Y-102353736D02*
G75*
G02*
X88489090Y-101399997I300680J953736D01*
G01*
X185134999Y-48994714D02*
G75*
G02*
X184134986Y-47994714I1J1000014D01*
G01*
X118830099Y-123801862D02*
G75*
G02*
X118784996Y-123283639I2955001J518262D01*
G01*
X147035001Y-38294714D02*
G75*
G02*
X148035001Y-37294701I999999J14D01*
G01*
X221235000Y-143244710D02*
X203185000Y-143244711D01*
X125798995Y-117494712D02*
X121785001Y-117494712D01*
X166084999Y-41994714D02*
G75*
G02*
X165084986Y-40994714I1J1000014D01*
G01*
X88489053Y-43294709D02*
G75*
G02*
X89489053Y-42294653I1000047J9D01*
G01*
X118785001Y-120494712D02*
X118785001Y-123283639D01*
D11*
X100410000Y-123020000D02*
X100410000Y-126120000D01*
X100410000Y-126120000D02*
X104010000Y-126120000D01*
X104010000Y-123020000D02*
X100410000Y-123020000D01*
X104010000Y-126120000D02*
X104010000Y-123020000D01*
X125709000Y-110279712D02*
X125709000Y-113379712D01*
X125709000Y-113379712D02*
X129309000Y-113379712D01*
X129309000Y-110279712D02*
X125709000Y-110279712D01*
X129309000Y-113379712D02*
X129309000Y-110279712D01*
X211639000Y-122455000D02*
X211639000Y-125555000D01*
X211639000Y-125555000D02*
X215239000Y-125555000D01*
X215239000Y-122455000D02*
X211639000Y-122455000D01*
X215239000Y-125555000D02*
X215239000Y-122455000D01*
X211719000Y-85494700D02*
X211719000Y-88594700D01*
X211719000Y-88594700D02*
X215319000Y-88594700D01*
X215319000Y-85494700D02*
X211719000Y-85494700D01*
X215319000Y-88594700D02*
X215319000Y-85494700D01*
X181149000Y-58984700D02*
X181149000Y-62084700D01*
X181149000Y-62084700D02*
X184749000Y-62084700D01*
X184749000Y-58984700D02*
X181149000Y-58984700D01*
X184749000Y-62084700D02*
X184749000Y-58984700D01*
X141859000Y-56924700D02*
X141859000Y-60024700D01*
X141859000Y-60024700D02*
X145459000Y-60024700D01*
X145459000Y-56924700D02*
X141859000Y-56924700D01*
X145459000Y-60024700D02*
X145459000Y-56924700D01*
X211410000Y-61369700D02*
X211410000Y-64469700D01*
X211410000Y-64469700D02*
X215010000Y-64469700D01*
X215010000Y-61369700D02*
X211410000Y-61369700D01*
X215010000Y-64469700D02*
X215010000Y-61369700D01*
X211410000Y-80419700D02*
X211410000Y-83519700D01*
X211410000Y-83519700D02*
X215010000Y-83519700D01*
X215010000Y-80419700D02*
X211410000Y-80419700D01*
X215010000Y-83519700D02*
X215010000Y-80419700D01*
X211410000Y-99470000D02*
X211410000Y-102570000D01*
X211410000Y-102570000D02*
X215010000Y-102570000D01*
X215010000Y-99470000D02*
X211410000Y-99470000D01*
X215010000Y-102570000D02*
X215010000Y-99470000D01*
X211410000Y-118520000D02*
X211410000Y-121620000D01*
X211410000Y-121620000D02*
X215010000Y-121620000D01*
X215010000Y-118520000D02*
X211410000Y-118520000D01*
X215010000Y-121620000D02*
X215010000Y-118520000D01*
X211410000Y-137570000D02*
X211410000Y-140670000D01*
X211410000Y-140670000D02*
X215010000Y-140670000D01*
X215010000Y-137570000D02*
X211410000Y-137570000D01*
X215010000Y-140670000D02*
X215010000Y-137570000D01*
X192360000Y-61369700D02*
X192360000Y-64469700D01*
X192360000Y-64469700D02*
X195960000Y-64469700D01*
X195960000Y-61369700D02*
X192360000Y-61369700D01*
X195960000Y-64469700D02*
X195960000Y-61369700D01*
X192360000Y-80419700D02*
X192360000Y-83519700D01*
X192360000Y-83519700D02*
X195960000Y-83519700D01*
X195960000Y-80419700D02*
X192360000Y-80419700D01*
X195960000Y-83519700D02*
X195960000Y-80419700D01*
X192360000Y-99470000D02*
X192360000Y-102570000D01*
X192360000Y-102570000D02*
X195960000Y-102570000D01*
X195960000Y-99470000D02*
X192360000Y-99470000D01*
X195960000Y-102570000D02*
X195960000Y-99470000D01*
X192360000Y-118520000D02*
X192360000Y-121620000D01*
X192360000Y-121620000D02*
X195960000Y-121620000D01*
X195960000Y-118520000D02*
X192360000Y-118520000D01*
X195960000Y-121620000D02*
X195960000Y-118520000D01*
X192360000Y-137570000D02*
X192360000Y-140670000D01*
X192360000Y-140670000D02*
X195960000Y-140670000D01*
X195960000Y-137570000D02*
X192360000Y-137570000D01*
X195960000Y-140670000D02*
X195960000Y-137570000D01*
X173310000Y-54369700D02*
X173310000Y-57469700D01*
X173310000Y-57469700D02*
X176910000Y-57469700D01*
X176910000Y-54369700D02*
X173310000Y-54369700D01*
X176910000Y-57469700D02*
X176910000Y-54369700D01*
X173310000Y-73419700D02*
X173310000Y-76519700D01*
X173310000Y-76519700D02*
X176910000Y-76519700D01*
X176910000Y-73419700D02*
X173310000Y-73419700D01*
X176910000Y-76519700D02*
X176910000Y-73419700D01*
X173310000Y-92469700D02*
X173310000Y-95569700D01*
X173310000Y-95569700D02*
X176910000Y-95569700D01*
X176910000Y-92469700D02*
X173310000Y-92469700D01*
X176910000Y-95569700D02*
X176910000Y-92469700D01*
X173310000Y-111520000D02*
X173310000Y-114620000D01*
X173310000Y-114620000D02*
X176910000Y-114620000D01*
X176910000Y-111520000D02*
X173310000Y-111520000D01*
X176910000Y-114620000D02*
X176910000Y-111520000D01*
X154260000Y-49669700D02*
X154260000Y-52769700D01*
X154260000Y-52769700D02*
X157860000Y-52769700D01*
X157860000Y-49669700D02*
X154260000Y-49669700D01*
X157860000Y-52769700D02*
X157860000Y-49669700D01*
X154260000Y-68719700D02*
X154260000Y-71819700D01*
X154260000Y-71819700D02*
X157860000Y-71819700D01*
X157860000Y-68719700D02*
X154260000Y-68719700D01*
X157860000Y-71819700D02*
X157860000Y-68719700D01*
X154260000Y-87769700D02*
X154260000Y-90869700D01*
X154260000Y-90869700D02*
X157860000Y-90869700D01*
X157860000Y-87769700D02*
X154260000Y-87769700D01*
X157860000Y-90869700D02*
X157860000Y-87769700D01*
X154260000Y-106820000D02*
X154260000Y-109920000D01*
X154260000Y-109920000D02*
X157860000Y-109920000D01*
X157860000Y-106820000D02*
X154260000Y-106820000D01*
X157860000Y-109920000D02*
X157860000Y-106820000D01*
X135210000Y-52169700D02*
X135210000Y-55269700D01*
X135210000Y-55269700D02*
X138810000Y-55269700D01*
X138810000Y-52169700D02*
X135210000Y-52169700D01*
X138810000Y-55269700D02*
X138810000Y-52169700D01*
X135210000Y-71219700D02*
X135210000Y-74319700D01*
X135210000Y-74319700D02*
X138810000Y-74319700D01*
X138810000Y-71219700D02*
X135210000Y-71219700D01*
X138810000Y-74319700D02*
X138810000Y-71219700D01*
X135210000Y-90269700D02*
X135210000Y-93369700D01*
X135210000Y-93369700D02*
X138810000Y-93369700D01*
X138810000Y-90269700D02*
X135210000Y-90269700D01*
X138810000Y-93369700D02*
X138810000Y-90269700D01*
X135210000Y-109320000D02*
X135210000Y-112420000D01*
X135210000Y-112420000D02*
X138810000Y-112420000D01*
X138810000Y-109320000D02*
X135210000Y-109320000D01*
X138810000Y-112420000D02*
X138810000Y-109320000D01*
X116160000Y-54669700D02*
X116160000Y-57769700D01*
X116160000Y-57769700D02*
X119760000Y-57769700D01*
X119760000Y-54669700D02*
X116160000Y-54669700D01*
X119760000Y-57769700D02*
X119760000Y-54669700D01*
X116160000Y-73719700D02*
X116160000Y-76819700D01*
X116160000Y-76819700D02*
X119760000Y-76819700D01*
X119760000Y-73719700D02*
X116160000Y-73719700D01*
X119760000Y-76819700D02*
X119760000Y-73719700D01*
X116160000Y-92769700D02*
X116160000Y-95869700D01*
X116160000Y-95869700D02*
X119760000Y-95869700D01*
X119760000Y-92769700D02*
X116160000Y-92769700D01*
X119760000Y-95869700D02*
X119760000Y-92769700D01*
X116160000Y-111820000D02*
X116160000Y-114920000D01*
X116160000Y-114920000D02*
X119760000Y-114920000D01*
X119760000Y-111820000D02*
X116160000Y-111820000D01*
X119760000Y-114920000D02*
X119760000Y-111820000D01*
X97110000Y-115320000D02*
X97110000Y-118420000D01*
X97110000Y-118420000D02*
X100710000Y-118420000D01*
X100710000Y-115320000D02*
X97110000Y-115320000D01*
X100710000Y-118420000D02*
X100710000Y-115320000D01*
X144610000Y-109340000D02*
X144610000Y-112440000D01*
X144610000Y-112440000D02*
X148210000Y-112440000D01*
X148210000Y-109340000D02*
X144610000Y-109340000D01*
X148210000Y-112440000D02*
X148210000Y-109340000D01*
M02*
